<svg width="75" height="16" viewBox="0 0 75 16" fill="none" xmlns="http://www.w3.org/2000/svg">
<path d="M11 3C11 3 7.18 2.815 4.17 6.94C1.86 10.105 1 13 1 13L1.97 12.5C2.69 11.25 3.065 10.735 3.77 10C5.035 10.37 6.355 10.325 7.5 9C6.5 8.72 5.7 8.785 4.52 8.905C5.845 8 6.75 7.8 8 8L8.5 7C7.6 6.83 7 6.815 6.11 7.02C7.095 6.325 7.78 5.935 9 6L9.605 5.035C8.825 4.98 8.355 5.065 7.46 5.285C8.265 4.555 9 4.225 10.07 4.16C10.07 4.16 10.595 3.215 11 3V3Z" fill="black"/>
<path d="M19.38 4.504V4.744C19.132 4.776 18.892 4.856 18.66 4.984C18.428 5.112 18.196 5.324 17.964 5.62L15.648 8.584L15.912 7.996L18.792 12.028C18.928 12.228 19.076 12.384 19.236 12.496C19.396 12.608 19.6 12.696 19.848 12.76V13C19.656 12.984 19.416 12.976 19.128 12.976C18.848 12.968 18.608 12.964 18.408 12.964C18.272 12.964 18.104 12.968 17.904 12.976C17.712 12.976 17.468 12.984 17.172 13V12.76C17.444 12.744 17.616 12.696 17.688 12.616C17.76 12.536 17.732 12.404 17.604 12.22L15.852 9.58C15.692 9.332 15.548 9.148 15.42 9.028C15.3 8.9 15.172 8.816 15.036 8.776C14.908 8.736 14.744 8.712 14.544 8.704V8.464C14.88 8.456 15.16 8.392 15.384 8.272C15.616 8.144 15.808 7.984 15.96 7.792L17.112 6.328C17.376 5.992 17.556 5.708 17.652 5.476C17.748 5.244 17.744 5.068 17.64 4.948C17.536 4.82 17.316 4.752 16.98 4.744V4.504C17.132 4.512 17.288 4.52 17.448 4.528C17.608 4.528 17.764 4.532 17.916 4.54C18.076 4.54 18.224 4.54 18.36 4.54C18.568 4.54 18.76 4.536 18.936 4.528C19.112 4.52 19.26 4.512 19.38 4.504ZM15.564 4.504V4.744C15.292 4.752 15.084 4.784 14.94 4.84C14.804 4.888 14.712 4.984 14.664 5.128C14.616 5.264 14.592 5.48 14.592 5.776V11.728C14.592 12.016 14.616 12.232 14.664 12.376C14.712 12.52 14.804 12.616 14.94 12.664C15.084 12.712 15.292 12.744 15.564 12.76V13C15.38 12.984 15.148 12.976 14.868 12.976C14.596 12.968 14.32 12.964 14.04 12.964C13.728 12.964 13.436 12.968 13.164 12.976C12.892 12.976 12.672 12.984 12.504 13V12.76C12.776 12.744 12.98 12.712 13.116 12.664C13.26 12.616 13.356 12.52 13.404 12.376C13.452 12.232 13.476 12.016 13.476 11.728V5.776C13.476 5.48 13.452 5.264 13.404 5.128C13.356 4.984 13.26 4.888 13.116 4.84C12.98 4.784 12.776 4.752 12.504 4.744V4.504C12.672 4.512 12.892 4.52 13.164 4.528C13.436 4.536 13.728 4.54 14.04 4.54C14.32 4.54 14.596 4.536 14.868 4.528C15.148 4.52 15.38 4.512 15.564 4.504ZM21.6753 13.084C21.3473 13.084 21.0633 13.024 20.8233 12.904C20.5833 12.776 20.3993 12.6 20.2713 12.376C20.1513 12.152 20.0913 11.892 20.0913 11.596C20.0913 11.244 20.1713 10.956 20.3313 10.732C20.4993 10.508 20.7113 10.328 20.9673 10.192C21.2233 10.056 21.4913 9.944 21.7713 9.856C22.0593 9.76 22.3313 9.672 22.5873 9.592C22.8433 9.504 23.0513 9.404 23.2113 9.292C23.3793 9.18 23.4633 9.032 23.4633 8.848V8.104C23.4633 7.768 23.4113 7.512 23.3073 7.336C23.2113 7.16 23.0793 7.044 22.9113 6.988C22.7433 6.924 22.5553 6.892 22.3473 6.892C22.1473 6.892 21.9313 6.92 21.6993 6.976C21.4753 7.032 21.2953 7.148 21.1593 7.324C21.3113 7.356 21.4433 7.436 21.5553 7.564C21.6673 7.692 21.7233 7.856 21.7233 8.056C21.7233 8.256 21.6593 8.416 21.5313 8.536C21.4033 8.648 21.2393 8.704 21.0393 8.704C20.8073 8.704 20.6353 8.632 20.5233 8.488C20.4193 8.336 20.3673 8.168 20.3673 7.984C20.3673 7.776 20.4193 7.608 20.5233 7.48C20.6273 7.352 20.7593 7.232 20.9193 7.12C21.1033 6.992 21.3393 6.884 21.6273 6.796C21.9233 6.7 22.2553 6.652 22.6233 6.652C22.9513 6.652 23.2313 6.692 23.4633 6.772C23.6953 6.844 23.8873 6.952 24.0393 7.096C24.2473 7.288 24.3833 7.524 24.4473 7.804C24.5113 8.076 24.5433 8.404 24.5433 8.788V12.124C24.5433 12.324 24.5713 12.468 24.6273 12.556C24.6913 12.644 24.7873 12.688 24.9153 12.688C25.0033 12.688 25.0873 12.668 25.1673 12.628C25.2473 12.588 25.3433 12.524 25.4553 12.436L25.5873 12.64C25.4193 12.768 25.2593 12.876 25.1073 12.964C24.9553 13.044 24.7513 13.084 24.4953 13.084C24.2633 13.084 24.0713 13.044 23.9193 12.964C23.7673 12.884 23.6513 12.768 23.5713 12.616C23.4993 12.456 23.4633 12.256 23.4633 12.016C23.2473 12.376 22.9873 12.644 22.6833 12.82C22.3873 12.996 22.0513 13.084 21.6753 13.084ZM22.1073 12.604C22.3713 12.604 22.6153 12.528 22.8393 12.376C23.0713 12.224 23.2793 11.996 23.4633 11.692V9.34C23.3673 9.476 23.2273 9.592 23.0433 9.688C22.8593 9.776 22.6593 9.868 22.4433 9.964C22.2273 10.052 22.0193 10.16 21.8193 10.288C21.6273 10.408 21.4673 10.568 21.3393 10.768C21.2113 10.968 21.1473 11.228 21.1473 11.548C21.1473 11.868 21.2313 12.124 21.3993 12.316C21.5753 12.508 21.8113 12.604 22.1073 12.604ZM27.4118 13.084C27.0838 13.084 26.7998 13.024 26.5598 12.904C26.3198 12.776 26.1358 12.6 26.0078 12.376C25.8878 12.152 25.8278 11.892 25.8278 11.596C25.8278 11.244 25.9078 10.956 26.0678 10.732C26.2358 10.508 26.4478 10.328 26.7038 10.192C26.9598 10.056 27.2278 9.944 27.5078 9.856C27.7958 9.76 28.0678 9.672 28.3238 9.592C28.5798 9.504 28.7878 9.404 28.9478 9.292C29.1158 9.18 29.1998 9.032 29.1998 8.848V8.104C29.1998 7.768 29.1478 7.512 29.0438 7.336C28.9478 7.16 28.8158 7.044 28.6478 6.988C28.4798 6.924 28.2918 6.892 28.0838 6.892C27.8838 6.892 27.6678 6.92 27.4358 6.976C27.2118 7.032 27.0318 7.148 26.8958 7.324C27.0478 7.356 27.1798 7.436 27.2918 7.564C27.4038 7.692 27.4598 7.856 27.4598 8.056C27.4598 8.256 27.3958 8.416 27.2678 8.536C27.1398 8.648 26.9758 8.704 26.7758 8.704C26.5438 8.704 26.3718 8.632 26.2598 8.488C26.1558 8.336 26.1038 8.168 26.1038 7.984C26.1038 7.776 26.1558 7.608 26.2598 7.48C26.3638 7.352 26.4958 7.232 26.6558 7.12C26.8398 6.992 27.0758 6.884 27.3638 6.796C27.6598 6.7 27.9918 6.652 28.3598 6.652C28.6878 6.652 28.9678 6.692 29.1998 6.772C29.4318 6.844 29.6238 6.952 29.7758 7.096C29.9838 7.288 30.1198 7.524 30.1838 7.804C30.2478 8.076 30.2798 8.404 30.2798 8.788V12.124C30.2798 12.324 30.3078 12.468 30.3638 12.556C30.4278 12.644 30.5238 12.688 30.6518 12.688C30.7398 12.688 30.8238 12.668 30.9038 12.628C30.9838 12.588 31.0798 12.524 31.1918 12.436L31.3238 12.64C31.1558 12.768 30.9958 12.876 30.8438 12.964C30.6918 13.044 30.4878 13.084 30.2318 13.084C29.9998 13.084 29.8078 13.044 29.6558 12.964C29.5038 12.884 29.3878 12.768 29.3078 12.616C29.2358 12.456 29.1998 12.256 29.1998 12.016C28.9838 12.376 28.7238 12.644 28.4198 12.82C28.1238 12.996 27.7878 13.084 27.4118 13.084ZM27.8438 12.604C28.1078 12.604 28.3518 12.528 28.5758 12.376C28.8078 12.224 29.0158 11.996 29.1998 11.692V9.34C29.1038 9.476 28.9638 9.592 28.7798 9.688C28.5958 9.776 28.3958 9.868 28.1798 9.964C27.9638 10.052 27.7558 10.16 27.5558 10.288C27.3638 10.408 27.2038 10.568 27.0758 10.768C26.9478 10.968 26.8838 11.228 26.8838 11.548C26.8838 11.868 26.9678 12.124 27.1358 12.316C27.3118 12.508 27.5478 12.604 27.8438 12.604ZM35.4044 6.652C35.6844 6.652 35.9284 6.692 36.1364 6.772C36.3444 6.852 36.5164 6.964 36.6524 7.108C36.8044 7.268 36.9084 7.476 36.9644 7.732C37.0204 7.988 37.0484 8.304 37.0484 8.68V11.884C37.0484 12.22 37.1164 12.448 37.2524 12.568C37.3964 12.688 37.6324 12.748 37.9604 12.748V13C37.8244 12.992 37.6164 12.984 37.3364 12.976C37.0564 12.96 36.7844 12.952 36.5204 12.952C36.2564 12.952 35.9964 12.96 35.7404 12.976C35.4924 12.984 35.3044 12.992 35.1764 13V12.748C35.4644 12.748 35.6684 12.688 35.7884 12.568C35.9084 12.448 35.9684 12.22 35.9684 11.884V8.416C35.9684 8.168 35.9524 7.94 35.9204 7.732C35.8884 7.524 35.8084 7.356 35.6804 7.228C35.5524 7.1 35.3444 7.036 35.0564 7.036C34.7444 7.036 34.4644 7.132 34.2164 7.324C33.9764 7.516 33.7844 7.78 33.6404 8.116C33.5044 8.444 33.4364 8.812 33.4364 9.22V11.884C33.4364 12.22 33.4964 12.448 33.6164 12.568C33.7364 12.688 33.9404 12.748 34.2284 12.748V13C34.1004 12.992 33.9084 12.984 33.6524 12.976C33.4044 12.96 33.1484 12.952 32.8844 12.952C32.6204 12.952 32.3484 12.96 32.0684 12.976C31.7884 12.984 31.5804 12.992 31.4444 13V12.748C31.7724 12.748 32.0044 12.688 32.1404 12.568C32.2844 12.448 32.3564 12.22 32.3564 11.884V8.128C32.3564 7.768 32.2924 7.504 32.1644 7.336C32.0364 7.16 31.7964 7.072 31.4444 7.072V6.82C31.7004 6.844 31.9484 6.856 32.1884 6.856C32.4204 6.856 32.6404 6.844 32.8484 6.82C33.0644 6.788 33.2604 6.744 33.4364 6.688V8.104C33.6444 7.584 33.9284 7.212 34.2884 6.988C34.6484 6.764 35.0204 6.652 35.4044 6.652ZM39.0164 6.652C39.2964 6.652 39.5404 6.692 39.7484 6.772C39.9564 6.852 40.1284 6.964 40.2644 7.108C40.4164 7.268 40.5204 7.476 40.5764 7.732C40.6324 7.988 40.6604 8.304 40.6604 8.68V11.884C40.6604 12.22 40.7284 12.448 40.8644 12.568C41.0084 12.688 41.2444 12.748 41.5724 12.748V13C41.4364 12.992 41.2284 12.984 40.9484 12.976C40.6684 12.96 40.3964 12.952 40.1324 12.952C39.8684 12.952 39.6084 12.96 39.3524 12.976C39.1044 12.984 38.9164 12.992 38.7884 13V12.748C39.0764 12.748 39.2804 12.688 39.4004 12.568C39.5204 12.448 39.5804 12.22 39.5804 11.884V8.416C39.5804 8.168 39.5644 7.94 39.5324 7.732C39.5004 7.524 39.4204 7.356 39.2924 7.228C39.1644 7.1 38.9564 7.036 38.6684 7.036C38.3564 7.036 38.0764 7.132 37.8284 7.324C37.5884 7.516 37.3964 7.776 37.2524 8.104C37.1164 8.432 37.0484 8.8 37.0484 9.208L37.0124 8.092C37.2284 7.54 37.5204 7.164 37.8884 6.964C38.2564 6.756 38.6324 6.652 39.0164 6.652Z" fill="black"/>
<path d="M46.416 4.48L49.332 11.992C49.444 12.28 49.568 12.48 49.704 12.592C49.848 12.696 49.976 12.752 50.088 12.76V13C49.848 12.984 49.564 12.976 49.236 12.976C48.916 12.968 48.592 12.964 48.264 12.964C47.896 12.964 47.548 12.968 47.22 12.976C46.892 12.976 46.632 12.984 46.44 13V12.76C46.848 12.744 47.104 12.676 47.208 12.556C47.32 12.428 47.296 12.16 47.136 11.752L45.096 6.172L45.312 5.86L43.488 10.612C43.312 11.052 43.204 11.412 43.164 11.692C43.132 11.972 43.152 12.188 43.224 12.34C43.304 12.492 43.428 12.6 43.596 12.664C43.772 12.72 43.98 12.752 44.22 12.76V13C43.956 12.984 43.704 12.976 43.464 12.976C43.224 12.968 42.98 12.964 42.732 12.964C42.556 12.964 42.388 12.968 42.228 12.976C42.076 12.976 41.94 12.984 41.82 13V12.76C41.988 12.728 42.16 12.62 42.336 12.436C42.512 12.252 42.684 11.94 42.852 11.5L45.588 4.48C45.716 4.488 45.852 4.492 45.996 4.492C46.148 4.492 46.288 4.488 46.416 4.48ZM47.256 9.544V9.784H43.68L43.8 9.544H47.256ZM52.4279 6.628C52.7639 6.628 53.0559 6.672 53.3039 6.76C53.5599 6.84 53.7439 6.92 53.8559 7C54.1279 7.184 54.2959 7.064 54.3599 6.64H54.6119C54.5959 6.864 54.5839 7.14 54.5759 7.468C54.5679 7.788 54.5639 8.216 54.5639 8.752H54.3119C54.2719 8.456 54.1959 8.164 54.0839 7.876C53.9719 7.588 53.8079 7.352 53.5919 7.168C53.3839 6.984 53.1119 6.892 52.7759 6.892C52.5439 6.892 52.3479 6.96 52.1879 7.096C52.0279 7.224 51.9479 7.412 51.9479 7.66C51.9479 7.9 52.0199 8.112 52.1639 8.296C52.3079 8.472 52.4919 8.644 52.7159 8.812C52.9479 8.972 53.1879 9.144 53.4359 9.328C53.6999 9.528 53.9399 9.728 54.1559 9.928C54.3719 10.12 54.5439 10.332 54.6719 10.564C54.7999 10.796 54.8639 11.072 54.8639 11.392C54.8639 11.752 54.7599 12.068 54.5519 12.34C54.3439 12.604 54.0679 12.808 53.7239 12.952C53.3879 13.096 53.0119 13.168 52.5959 13.168C52.3559 13.168 52.1399 13.144 51.9479 13.096C51.7639 13.048 51.6039 12.988 51.4679 12.916C51.3639 12.868 51.2639 12.824 51.1679 12.784C51.0799 12.736 50.9959 12.696 50.9159 12.664C50.8359 12.64 50.7639 12.668 50.6999 12.748C50.6439 12.828 50.5999 12.94 50.5679 13.084H50.3159C50.3319 12.828 50.3439 12.516 50.3519 12.148C50.3599 11.78 50.3639 11.292 50.3639 10.684H50.6159C50.6639 11.116 50.7519 11.5 50.8799 11.836C51.0079 12.164 51.1799 12.424 51.3959 12.616C51.6199 12.8 51.8999 12.892 52.2359 12.892C52.3719 12.892 52.5039 12.864 52.6319 12.808C52.7599 12.752 52.8639 12.66 52.9439 12.532C53.0319 12.404 53.0759 12.24 53.0759 12.04C53.0759 11.688 52.9599 11.396 52.7279 11.164C52.5039 10.932 52.2159 10.68 51.8639 10.408C51.6079 10.2 51.3639 9.996 51.1319 9.796C50.9079 9.588 50.7239 9.364 50.5799 9.124C50.4359 8.876 50.3639 8.596 50.3639 8.284C50.3639 7.924 50.4599 7.62 50.6519 7.372C50.8439 7.124 51.0959 6.94 51.4079 6.82C51.7279 6.692 52.0679 6.628 52.4279 6.628ZM57.0109 13.084C56.6509 13.084 56.3509 13.016 56.1109 12.88C55.8709 12.744 55.6949 12.564 55.5829 12.34C55.4709 12.108 55.4149 11.856 55.4149 11.584C55.4149 11.24 55.4909 10.96 55.6429 10.744C55.8029 10.528 56.0069 10.352 56.2549 10.216C56.5029 10.08 56.7629 9.968 57.0349 9.88C57.3149 9.792 57.5789 9.708 57.8269 9.628C58.0829 9.54 58.2869 9.44 58.4389 9.328C58.5989 9.208 58.6789 9.056 58.6789 8.872V7.936C58.6789 7.728 58.6429 7.544 58.5709 7.384C58.5069 7.216 58.4029 7.088 58.2589 7C58.1229 6.912 57.9429 6.868 57.7189 6.868C57.5589 6.868 57.3989 6.892 57.2389 6.94C57.0789 6.98 56.9469 7.052 56.8429 7.156C57.0669 7.236 57.2389 7.36 57.3589 7.528C57.4869 7.688 57.5509 7.872 57.5509 8.08C57.5509 8.352 57.4549 8.568 57.2629 8.728C57.0789 8.888 56.8589 8.968 56.6029 8.968C56.3149 8.968 56.0949 8.88 55.9429 8.704C55.7989 8.52 55.7269 8.3 55.7269 8.044C55.7269 7.812 55.7829 7.62 55.8949 7.468C56.0149 7.316 56.1789 7.172 56.3869 7.036C56.6109 6.908 56.8789 6.808 57.1909 6.736C57.5109 6.664 57.8549 6.628 58.2229 6.628C58.5909 6.628 58.9229 6.668 59.2189 6.748C59.5149 6.82 59.7629 6.956 59.9629 7.156C60.1469 7.34 60.2669 7.568 60.3229 7.84C60.3789 8.104 60.4069 8.44 60.4069 8.848V12.112C60.4069 12.312 60.4269 12.452 60.4669 12.532C60.5069 12.604 60.5749 12.64 60.6709 12.64C60.7429 12.64 60.8109 12.62 60.8749 12.58C60.9469 12.54 61.0229 12.492 61.1029 12.436L61.2229 12.64C61.0549 12.784 60.8589 12.896 60.6349 12.976C60.4189 13.048 60.1749 13.084 59.9029 13.084C59.6069 13.084 59.3709 13.044 59.1949 12.964C59.0189 12.876 58.8909 12.76 58.8109 12.616C58.7389 12.472 58.7029 12.304 58.7029 12.112C58.5109 12.416 58.2789 12.656 58.0069 12.832C57.7349 13 57.4029 13.084 57.0109 13.084ZM57.8629 12.316C58.0229 12.316 58.1669 12.28 58.2949 12.208C58.4309 12.128 58.5589 12 58.6789 11.824V9.364C58.6069 9.484 58.5069 9.592 58.3789 9.688C58.2509 9.784 58.1149 9.884 57.9709 9.988C57.8269 10.084 57.6869 10.192 57.5509 10.312C57.4229 10.432 57.3189 10.58 57.2389 10.756C57.1589 10.932 57.1189 11.144 57.1189 11.392C57.1189 11.704 57.1869 11.936 57.3229 12.088C57.4589 12.24 57.6389 12.316 57.8629 12.316ZM62.9818 13.084C62.6218 13.084 62.3218 13.016 62.0818 12.88C61.8418 12.744 61.6658 12.564 61.5538 12.34C61.4418 12.108 61.3858 11.856 61.3858 11.584C61.3858 11.24 61.4618 10.96 61.6138 10.744C61.7738 10.528 61.9778 10.352 62.2258 10.216C62.4738 10.08 62.7338 9.968 63.0058 9.88C63.2858 9.792 63.5498 9.708 63.7978 9.628C64.0538 9.54 64.2578 9.44 64.4098 9.328C64.5698 9.208 64.6498 9.056 64.6498 8.872V7.936C64.6498 7.728 64.6138 7.544 64.5418 7.384C64.4778 7.216 64.3738 7.088 64.2298 7C64.0938 6.912 63.9138 6.868 63.6898 6.868C63.5298 6.868 63.3698 6.892 63.2098 6.94C63.0498 6.98 62.9178 7.052 62.8138 7.156C63.0378 7.236 63.2098 7.36 63.3298 7.528C63.4578 7.688 63.5218 7.872 63.5218 8.08C63.5218 8.352 63.4258 8.568 63.2338 8.728C63.0498 8.888 62.8298 8.968 62.5738 8.968C62.2858 8.968 62.0658 8.88 61.9138 8.704C61.7698 8.52 61.6978 8.3 61.6978 8.044C61.6978 7.812 61.7538 7.62 61.8658 7.468C61.9858 7.316 62.1498 7.172 62.3578 7.036C62.5818 6.908 62.8498 6.808 63.1618 6.736C63.4818 6.664 63.8258 6.628 64.1938 6.628C64.5618 6.628 64.8938 6.668 65.1898 6.748C65.4858 6.82 65.7338 6.956 65.9338 7.156C66.1178 7.34 66.2378 7.568 66.2938 7.84C66.3498 8.104 66.3778 8.44 66.3778 8.848V12.112C66.3778 12.312 66.3978 12.452 66.4378 12.532C66.4778 12.604 66.5458 12.64 66.6418 12.64C66.7138 12.64 66.7818 12.62 66.8458 12.58C66.9178 12.54 66.9938 12.492 67.0738 12.436L67.1938 12.64C67.0258 12.784 66.8298 12.896 66.6058 12.976C66.3898 13.048 66.1458 13.084 65.8738 13.084C65.5778 13.084 65.3418 13.044 65.1658 12.964C64.9898 12.876 64.8618 12.76 64.7818 12.616C64.7098 12.472 64.6738 12.304 64.6738 12.112C64.4818 12.416 64.2498 12.656 63.9778 12.832C63.7058 13 63.3738 13.084 62.9818 13.084ZM63.8338 12.316C63.9938 12.316 64.1378 12.28 64.2658 12.208C64.4018 12.128 64.5298 12 64.6498 11.824V9.364C64.5778 9.484 64.4778 9.592 64.3498 9.688C64.2218 9.784 64.0858 9.884 63.9418 9.988C63.7978 10.084 63.6578 10.192 63.5218 10.312C63.3938 10.432 63.2898 10.58 63.2098 10.756C63.1298 10.932 63.0898 11.144 63.0898 11.392C63.0898 11.704 63.1578 11.936 63.2938 12.088C63.4298 12.24 63.6098 12.316 63.8338 12.316ZM71.7608 6.628C72.0968 6.628 72.3688 6.672 72.5768 6.76C72.7928 6.84 72.9608 6.952 73.0808 7.096C73.2088 7.248 73.3008 7.444 73.3568 7.684C73.4208 7.924 73.4528 8.248 73.4528 8.656V11.884C73.4528 12.22 73.5088 12.448 73.6208 12.568C73.7408 12.688 73.9408 12.748 74.2208 12.748V13C74.0688 12.992 73.8408 12.984 73.5368 12.976C73.2328 12.96 72.9328 12.952 72.6368 12.952C72.3328 12.952 72.0328 12.96 71.7368 12.976C71.4488 12.984 71.2288 12.992 71.0768 13V12.748C71.3168 12.748 71.4848 12.688 71.5808 12.568C71.6768 12.448 71.7248 12.22 71.7248 11.884V8.152C71.7248 7.952 71.7048 7.78 71.6648 7.636C71.6248 7.484 71.5528 7.368 71.4488 7.288C71.3448 7.2 71.1888 7.156 70.9808 7.156C70.7648 7.156 70.5648 7.216 70.3808 7.336C70.2048 7.456 70.0608 7.624 69.9488 7.84C69.8448 8.048 69.7928 8.284 69.7928 8.548V11.884C69.7928 12.22 69.8408 12.448 69.9368 12.568C70.0408 12.688 70.2088 12.748 70.4408 12.748V13C70.2968 12.992 70.0848 12.984 69.8048 12.976C69.5328 12.96 69.2488 12.952 68.9528 12.952C68.6488 12.952 68.3368 12.96 68.0168 12.976C67.6968 12.984 67.4568 12.992 67.2968 13V12.748C67.5768 12.748 67.7728 12.688 67.8848 12.568C68.0048 12.448 68.0648 12.22 68.0648 11.884V8.104C68.0648 7.744 68.0088 7.48 67.8968 7.312C67.7928 7.136 67.5928 7.048 67.2968 7.048V6.796C67.5528 6.82 67.8008 6.832 68.0408 6.832C68.3768 6.832 68.6888 6.82 68.9768 6.796C69.2728 6.764 69.5448 6.72 69.7928 6.664V7.744C69.9928 7.336 70.2648 7.048 70.6088 6.88C70.9528 6.712 71.3368 6.628 71.7608 6.628Z" fill="#00A1FC"/>
</svg>
